<?xml version="1.0" encoding="UTF-8" standalone="no"?>
<svg
   xmlns:dc="http://purl.org/dc/elements/1.1/"
   xmlns:cc="http://creativecommons.org/ns#"
   xmlns:rdf="http://www.w3.org/1999/02/22-rdf-syntax-ns#"
   xmlns:svg="http://www.w3.org/2000/svg"
   xmlns="http://www.w3.org/2000/svg"
   xmlns:sodipodi="http://sodipodi.sourceforge.net/DTD/sodipodi-0.dtd"
   xmlns:inkscape="http://www.inkscape.org/namespaces/inkscape"
   inkscape:version="1.0 (4035a4f, 2020-05-01)"
   sodipodi:docname="openwrt-logo-white-and-light-blue.svg"
   id="svg1003"
   version="1.1"
   viewBox="0 0 61.565 16.231">
  <metadata
     id="metadata1009">
    <rdf:RDF>
      <cc:Work
         rdf:about="">
        <dc:format>image/svg+xml</dc:format>
        <dc:type
           rdf:resource="http://purl.org/dc/dcmitype/StillImage" />
      </cc:Work>
    </rdf:RDF>
  </metadata>
  <defs
     id="defs1007" />
  <sodipodi:namedview
     inkscape:current-layer="svg1003"
     inkscape:window-maximized="0"
     inkscape:window-y="23"
     inkscape:window-x="379"
     inkscape:cy="8.1155005"
     inkscape:cx="30.782499"
     inkscape:zoom="17.802323"
     showgrid="false"
     id="namedview1005"
     inkscape:window-height="684"
     inkscape:window-width="1089"
     inkscape:pageshadow="2"
     inkscape:pageopacity="0"
     guidetolerance="10"
     gridtolerance="10"
     objecttolerance="10"
     borderopacity="1"
     bordercolor="#666666"
     pagecolor="#ffffff" />
  <path
     id="path991"
     fill="#43b0e8"
     d="m 28.055,14.198 h -0.396 l -0.25,-0.928 -0.254,0.928 h -0.394 l -0.428,-1.501 h 0.378 l 0.262,0.945 0.258,-0.945 h 0.352 l 0.257,0.945 0.262,-0.945 h 0.381 z m 1.02,-1.501 h 0.37 v 1.5 h -0.37 z m 2.007,1.501 -0.452,-0.516 h -0.108 v 0.516 h -0.37 v -1.501 h 0.76 c 0.163,0 0.293,0.045 0.392,0.135 0.098,0.09 0.148,0.21 0.148,0.355 a 0.47,0.47 0 0 1 -0.106,0.31 0.503,0.503 0 0 1 -0.289,0.168 l 0.47,0.533 z m -0.21,-0.825 a 0.24,0.24 0 0 0 0.158,-0.049 0.165,0.165 0 0 0 0.059,-0.132 0.162,0.162 0 0 0 -0.06,-0.13 0.24,0.24 0 0 0 -0.157,-0.05 h -0.35 v 0.361 z m 2.418,0.825 h -1.168 v -1.501 h 1.162 v 0.318 h -0.793 v 0.282 h 0.728 v 0.3 h -0.728 v 0.283 h 0.8 z m 1.789,0 h -1.11 v -1.501 h 0.37 v 1.178 h 0.74 z m 1.823,0 h -1.169 v -1.501 h 1.162 v 0.318 h -0.793 v 0.282 h 0.729 v 0.3 h -0.729 v 0.283 h 0.8 z m 1.68,-1.42 c 0.11,0.077 0.18,0.184 0.208,0.32 l -0.362,0.073 a 0.244,0.244 0 0 0 -0.094,-0.155 0.272,0.272 0 0 0 -0.168,-0.055 0.231,0.231 0 0 0 -0.146,0.044 0.133,0.133 0 0 0 -0.056,0.109 c 0,0.065 0.04,0.107 0.12,0.125 l 0.312,0.07 c 0.275,0.06 0.412,0.206 0.412,0.436 a 0.417,0.417 0 0 1 -0.176,0.358 0.736,0.736 0 0 1 -0.442,0.128 0.792,0.792 0 0 1 -0.444,-0.12 0.457,0.457 0 0 1 -0.212,-0.335 l 0.38,-0.073 c 0.036,0.148 0.135,0.221 0.297,0.221 a 0.272,0.272 0 0 0 0.162,-0.042 0.13,0.13 0 0 0 0.06,-0.112 0.117,0.117 0 0 0 -0.03,-0.085 c -0.021,-0.021 -0.057,-0.037 -0.11,-0.048 L 37.98,13.57 c -0.269,-0.06 -0.403,-0.206 -0.403,-0.434 0,-0.145 0.054,-0.26 0.163,-0.345 a 0.68,0.68 0 0 1 0.43,-0.128 c 0.164,0 0.302,0.039 0.412,0.115 m 1.86,0 c 0.11,0.077 0.18,0.184 0.208,0.32 l -0.363,0.073 a 0.245,0.245 0 0 0 -0.094,-0.155 0.272,0.272 0 0 0 -0.168,-0.055 0.231,0.231 0 0 0 -0.146,0.044 0.133,0.133 0 0 0 -0.055,0.109 c 0,0.065 0.04,0.107 0.12,0.125 l 0.312,0.07 c 0.274,0.06 0.412,0.206 0.412,0.436 a 0.417,0.417 0 0 1 -0.177,0.358 0.736,0.736 0 0 1 -0.441,0.128 0.792,0.792 0 0 1 -0.445,-0.12 0.457,0.457 0 0 1 -0.212,-0.335 l 0.381,-0.073 c 0.036,0.148 0.135,0.221 0.296,0.221 a 0.272,0.272 0 0 0 0.162,-0.042 0.132,0.132 0 0 0 0.06,-0.112 0.117,0.117 0 0 0 -0.03,-0.085 c -0.02,-0.021 -0.057,-0.037 -0.11,-0.048 L 39.839,13.57 c -0.269,-0.06 -0.403,-0.206 -0.403,-0.434 0,-0.145 0.054,-0.26 0.163,-0.345 a 0.68,0.68 0 0 1 0.43,-0.128 c 0.165,0 0.302,0.039 0.413,0.115 m 2.231,0.559 h 0.704 v 0.323 h -0.704 v 0.537 h -0.37 v -1.5 h 1.16 v 0.325 h -0.79 z m 2.347,0.861 -0.452,-0.516 h -0.107 v 0.516 h -0.37 v -1.501 h 0.76 c 0.162,0 0.293,0.045 0.391,0.135 0.1,0.09 0.148,0.21 0.148,0.355 a 0.47,0.47 0 0 1 -0.105,0.31 0.503,0.503 0 0 1 -0.289,0.168 l 0.47,0.533 z m -0.21,-0.825 a 0.24,0.24 0 0 0 0.158,-0.049 0.164,0.164 0 0 0 0.06,-0.132 0.16,0.16 0 0 0 -0.06,-0.13 0.24,0.24 0 0 0 -0.158,-0.05 h -0.349 v 0.361 z m 2.42,0.825 h -1.17 v -1.501 h 1.163 v 0.318 H 46.43 v 0.282 h 0.728 v 0.3 H 46.43 v 0.283 h 0.8 z m 1.848,0 h -1.17 v -1.501 h 1.163 v 0.318 h -0.793 v 0.282 h 0.728 v 0.3 h -0.728 v 0.283 h 0.8 z m 1.272,-1.501 c 0.247,0 0.445,0.069 0.596,0.207 0.151,0.138 0.227,0.32 0.227,0.543 a 0.702,0.702 0 0 1 -0.227,0.543 c -0.15,0.138 -0.35,0.208 -0.596,0.208 h -0.593 v -1.501 z m -0.013,1.18 c 0.14,0 0.253,-0.039 0.337,-0.117 A 0.406,0.406 0 0 0 50.8,13.447 0.406,0.406 0 0 0 50.674,13.135 0.475,0.475 0 0 0 50.337,13.017 h -0.21 v 0.86 z m 2.808,-0.985 a 0.754,0.754 0 0 1 0.232,0.557 0.748,0.748 0 0 1 -0.232,0.555 0.78,0.78 0 0 1 -0.568,0.227 0.78,0.78 0 0 1 -0.568,-0.227 0.748,0.748 0 0 1 -0.231,-0.555 c 0,-0.22 0.077,-0.405 0.231,-0.557 a 0.779,0.779 0 0 1 0.568,-0.229 c 0.224,0 0.414,0.077 0.568,0.229 m -0.26,0.875 a 0.438,0.438 0 0 0 0.122,-0.318 0.444,0.444 0 0 0 -0.123,-0.32 0.41,0.41 0 0 0 -0.307,-0.128 0.409,0.409 0 0 0 -0.307,0.128 0.442,0.442 0 0 0 -0.123,0.32 c 0,0.127 0.041,0.233 0.123,0.318 a 0.41,0.41 0 0 0 0.307,0.126 0.411,0.411 0 0 0 0.307,-0.126 m 2.881,0.431 h -0.359 v -0.749 l -0.391,0.749 h -0.23 l -0.393,-0.753 v 0.753 h -0.359 v -1.501 h 0.363 l 0.504,0.93 0.504,-0.93 h 0.36 z" />
  <path
     id="path993"
     fill="#fff"
     d="M6.442 8.063c-.58 0-1.05.472-1.05 1.05 0 .58.47 1.051 1.05 1.051a1.051 1.051 0 000-2.1M0 2.672l1.092 1.092a7.546 7.546 0 015.35-2.22c2.086 0 3.979.85 5.35 2.22l1.091-1.092A9.086 9.086 0 006.442 0 9.086 9.086 0 000 2.672" />
  <path
     id="path995"
     fill="#fff"
     d="M1.965 4.637L3.057 5.73a4.773 4.773 0 013.385-1.404c1.32 0 2.517.537 3.384 1.404l1.092-1.092A6.313 6.313 0 006.442 2.78c-1.747 0-3.33.71-4.477 1.857" />
  <path
     id="path997"
     fill="#fff"
     d="M3.93 6.603l1.092 1.092a2.001 2.001 0 012.838 0l1.093-1.092A3.541 3.541 0 006.442 5.56c-.98 0-1.868.398-2.511 1.042" />
  <path
     id="path999"
     fill="#43b0e8"
     d="M10.31 6.296c.578.791.92 1.765.92 2.818a4.794 4.794 0 01-4.788 4.788 4.794 4.794 0 01-4.79-4.788c0-1.053.343-2.027.921-2.818L1.472 5.194a6.301 6.301 0 00-1.364 3.92 6.34 6.34 0 006.334 6.333 6.34 6.34 0 006.333-6.333c0-1.48-.511-2.84-1.364-3.92z" />
  <path
     id="path1001"
     fill="#ffffff"
     d="m 21.344,5.734 c 0.702,0.699 1.053,1.552 1.053,2.56 0,1 -0.35,1.847 -1.053,2.542 -0.702,0.696 -1.56,1.043 -2.574,1.043 -1.014,0 -1.872,-0.347 -2.574,-1.043 -0.702,-0.695 -1.053,-1.543 -1.053,-2.543 0,-1.007 0.35,-1.86 1.053,-2.559 0.702,-0.699 1.56,-1.048 2.574,-1.048 1.014,0 1.872,0.35 2.574,1.048 M 20.347,9.917 C 20.776,9.485 20.99,8.944 20.99,8.293 20.99,7.643 20.776,7.098 20.347,6.659 A 2.119,2.119 0 0 0 18.77,6.001 c -0.623,0 -1.15,0.22 -1.577,0.658 -0.428,0.439 -0.642,0.983 -0.642,1.634 0,0.65 0.214,1.192 0.642,1.624 0.428,0.431 0.954,0.647 1.577,0.647 0.624,0 1.15,-0.216 1.577,-0.647 M 28.342,7.22 c 0.503,0.516 0.755,1.165 0.755,1.946 0,0.781 -0.25,1.429 -0.75,1.942 -0.5,0.514 -1.09,0.771 -1.768,0.771 -0.67,0 -1.236,-0.185 -1.695,-0.555 v 2.148 H 23.528 V 6.598 h 1.356 v 0.41 c 0.452,-0.376 1.017,-0.565 1.695,-0.565 0.672,0 1.26,0.259 1.763,0.776 m -0.966,3.063 c 0.27,-0.278 0.406,-0.65 0.406,-1.116 0,-0.465 -0.135,-0.839 -0.406,-1.12 -0.27,-0.28 -0.615,-0.42 -1.033,-0.42 -0.383,0 -0.723,0.143 -1.017,0.43 -0.295,0.288 -0.442,0.658 -0.442,1.11 0,0.452 0.147,0.82 0.442,1.105 0.294,0.284 0.634,0.426 1.017,0.426 0.418,0 0.762,-0.138 1.033,-0.415 M 34.964,9.526 H 31.06 c 0.068,0.363 0.22,0.653 0.457,0.868 0.236,0.216 0.512,0.324 0.827,0.324 0.582,0 1.007,-0.226 1.274,-0.678 l 1.213,0.257 c -0.22,0.52 -0.545,0.914 -0.976,1.181 -0.432,0.268 -0.936,0.401 -1.511,0.401 -0.74,0 -1.363,-0.253 -1.87,-0.76 -0.507,-0.507 -0.76,-1.158 -0.76,-1.952 0,-0.795 0.254,-1.448 0.765,-1.958 0.51,-0.51 1.139,-0.766 1.885,-0.766 0.7,0 1.3,0.245 1.804,0.735 0.503,0.49 0.769,1.118 0.796,1.886 z M 31.578,7.872 A 1.148,1.148 0 0 0 31.1,8.57 h 2.477 C 33.495,8.255 33.344,8.019 33.125,7.861 a 1.27,1.27 0 0 0 -0.76,-0.236 c -0.281,0 -0.543,0.082 -0.787,0.247 m 8.873,-0.828 c 0.377,0.401 0.566,0.92 0.566,1.557 v 3.124 H 39.66 V 8.89 c 0,-0.363 -0.094,-0.654 -0.282,-0.873 -0.189,-0.22 -0.44,-0.33 -0.756,-0.33 -0.85,0 -1.274,0.59 -1.274,1.768 v 2.271 H 35.991 V 6.597 h 1.357 V 7.06 c 0.411,-0.411 0.949,-0.617 1.613,-0.617 0.617,0 1.114,0.2 1.49,0.601 m 8.929,4.681 h -1.5 l -1.335,-4.644 -1.346,4.644 h -1.49 L 41.704,4.84 h 1.459 l 1.315,4.748 1.388,-4.748 h 1.346 l 1.387,4.748 1.315,-4.748 h 1.47 z m 6.228,-5.158 -0.072,1.305 h -0.298 c -1.22,0 -1.83,0.733 -1.83,2.199 v 1.654 H 52.052 V 6.597 h 1.357 v 0.936 c 0.465,-0.672 1.079,-1.008 1.839,-1.008 0.157,0 0.277,0.014 0.36,0.042 m 4.685,4.933 c -0.473,0.253 -0.918,0.38 -1.336,0.38 -0.63,0 -1.123,-0.17 -1.48,-0.51 -0.356,-0.339 -0.534,-0.85 -0.534,-1.536 V 7.707 h -1.1 v -1.11 h 1.1 V 5.045 H 58.3 v 1.552 h 1.675 v 1.11 H 58.3 v 2.025 c 0,0.589 0.25,0.883 0.75,0.883 0.26,0 0.545,-0.082 0.853,-0.246 z m 1.272,-6.812 a 0.717,0.717 0 0 1 -0.432,0.65 0.693,0.693 0 0 1 -0.277,0.055 0.711,0.711 0 0 1 -0.65,-0.982 0.708,0.708 0 0 1 1.359,0.277 m -0.114,0 A 0.587,0.587 0 0 0 61.277,4.267 0.592,0.592 0 0 0 60.625,4.14 0.596,0.596 0 0 0 60.435,5.109 0.595,0.595 0 0 0 61.451,4.688 M 60.993,4.979 V 4.813 c 0,-0.032 -0.007,-0.054 -0.02,-0.068 -0.014,-0.013 -0.04,-0.02 -0.08,-0.02 H 60.749 V 4.979 H 60.616 V 4.333 h 0.329 c 0.061,0 0.11,0.018 0.146,0.054 0.035,0.036 0.053,0.08 0.053,0.135 a 0.167,0.167 0 0 1 -0.024,0.09 0.138,0.138 0 0 1 -0.072,0.057 c 0.03,0.01 0.05,0.025 0.061,0.043 0.01,0.018 0.017,0.046 0.017,0.083 V 4.979 Z M 60.749,4.444 v 0.174 h 0.17 c 0.035,0 0.06,-0.008 0.075,-0.024 A 0.082,0.082 0 0 0 61.019,4.533 0.09,0.09 0 0 0 60.997,4.468 C 60.982,4.452 60.957,4.444 60.923,4.444 Z" />
</svg>
